<?xml version="1.0" encoding="utf-8"?>
<!-- Generator: Adobe Illustrator 28.0.0, SVG Export Plug-In . SVG Version: 6.00 Build 0)  -->
<svg version="1.1" id="Layer_1" xmlns="http://www.w3.org/2000/svg" xmlns:xlink="http://www.w3.org/1999/xlink" x="0px" y="0px"
	 viewBox="0 0 488.7 425.3" style="enable-background:new 0 0 488.7 425.3;" xml:space="preserve">
<style type="text/css">
	.st0{fill:#5302FF;}
</style>
<g>
	<polygon class="st0" points="129.6,153.6 110.9,153.6 110.9,9.1 22,9.1 19,0 0,0 0,9.1 0,19 0,40.8 69.7,40.8 69.7,153.6 0,153.6 
		0,185.3 129.6,185.3 	"/>
	<polygon class="st0" points="195.9,9.1 176.7,9.1 173.7,0 154.7,0 154.7,9.1 154.7,19 154.7,185.3 195.9,185.3 	"/>
	<path class="st0" d="M270.1,9.1h-26l-3-9.1h-19v9.1V19v21.8h39c22.9,0,29.9,9.3,29.9,37.5v107.1h41.3V74.5
		C332.3,26.2,315.2,9.1,270.1,9.1z"/>
	<polygon class="st0" points="470.1,153.6 470.1,9.1 381.2,9.1 378.2,0 359.2,0 359.2,9.1 359.2,19 359.2,40.8 428.8,40.8 
		428.8,153.6 359.2,153.6 359.2,185.3 488.7,185.3 488.7,153.6 	"/>
	<path class="st0" d="M262.7,230.7H23.6l-3-9.1h-19v9.1v9.9V407h312.2V282.3C313.7,245.6,298.6,230.7,262.7,230.7z M273.5,375.3
		h-71.2l3.5-20c9.3-1.2,17.2-8.4,18.9-18.1c2.1-12.1-5.9-23.6-18-25.7s-23.6,5.9-25.7,18c-1.7,9.8,3.2,19.2,11.6,23.5l-3.9,22.3
		h-26.2v-46.2c9-2.8,15.5-11.2,15.5-21.1c0-12.2-9.9-22.2-22.2-22.2s-22.2,9.9-22.2,22.2c0,9.9,6.5,18.3,15.5,21.1v46.2H123
		l-3.9-22.3c8.4-4.3,13.3-13.7,11.6-23.5c-2.1-12.1-13.6-20.1-25.7-18s-20.1,13.6-18,25.7c1.7,9.8,9.6,16.9,18.9,18.1l3.5,20H41.6
		V262.4h209.3c16.1,0,22.6,7.3,22.6,26.9V375.3z"/>
	<path class="st0" d="M452.5,221.7h-19v19l0,0v89.8c0,30.4-6,37.7-27.2,44L383,232.9h-17.5l-3.8-11.3h-22l3.4,18.8l0,0l25.3,145.1
		l-29.7,8.8l7.8,30.9l66.7-18.9c41.3-11.6,61.6-29.9,61.6-75v-98.5h-18.5L452.5,221.7z"/>
</g>
</svg>
